<svg width="18" height="18" viewBox="0 0 18 18" fill="none" xmlns="http://www.w3.org/2000/svg">
<rect width="18" height="18" rx="9" fill="white"/>
<path d="M8.47735 3.21307L3.21229 8.47379C2.92924 8.75662 2.92924 9.21343 3.21229 9.49626L8.47735 14.757C8.76041 15.0398 9.21759 15.0398 9.50065 14.757L11.7082 12.5512C11.9617 12.2979 11.9617 11.8873 11.7082 11.634C11.4547 11.3807 11.0437 11.3807 10.7902 11.634L9.11668 13.3061C9.04622 13.3765 8.9393 13.3765 8.86884 13.3061L4.66432 9.10508C4.59387 9.03469 4.59387 8.92785 4.66432 8.85745L8.86884 4.65639C8.9393 4.58599 9.04622 4.58599 9.11668 4.65639L10.7902 6.32855C11.0437 6.58184 11.4547 6.58184 11.7082 6.32855C11.9617 6.07526 11.9617 5.66459 11.7082 5.4113L9.50089 3.20579C9.21667 2.92909 8.75932 2.93133 8.47735 3.21307Z" fill="url(#paint0_linear_82_712)"/>
<path d="M8.47735 3.21307L3.21229 8.47379C2.92924 8.75662 2.92924 9.21343 3.21229 9.49626L8.47735 14.757C8.76041 15.0398 9.21759 15.0398 9.50065 14.757L11.7082 12.5512C11.9617 12.2979 11.9617 11.8873 11.7082 11.634C11.4547 11.3807 11.0437 11.3807 10.7902 11.634L9.11668 13.3061C9.04622 13.3765 8.9393 13.3765 8.86884 13.3061L4.66432 9.10508C4.59387 9.03469 4.59387 8.92785 4.66432 8.85745L8.86884 4.65639C9.04427 4.50516 9.33049 4.19884 9.75082 4.1272C10.0632 4.07395 10.4047 4.19114 10.7754 4.47876C10.5276 4.23116 10.1027 3.80684 9.50089 3.20579C9.21667 2.92909 8.75932 2.93133 8.47735 3.21307Z" fill="url(#paint1_linear_82_712)"/>
<path d="M12.2177 11.1447C12.4712 11.398 12.8822 11.398 13.1357 11.1447L14.7641 9.51765C15.0472 9.23483 15.0472 8.77802 14.7642 8.49522L13.1216 6.85979C12.8675 6.6068 12.4563 6.60717 12.2027 6.86061C11.9492 7.1139 11.9492 7.52456 12.2027 7.77785L13.3121 8.88636C13.3826 8.95676 13.3826 9.0636 13.3121 9.13399L12.2177 10.2275C11.9642 10.4808 11.9642 10.8914 12.2177 11.1447Z" fill="url(#paint2_linear_82_712)"/>
<path d="M9.01531 10.4317C9.80042 10.4317 10.4369 9.7958 10.4369 9.01134C10.4369 8.22687 9.80042 7.59094 9.01531 7.59094C8.23021 7.59094 7.59375 8.22687 7.59375 9.01134C7.59375 9.7958 8.23021 10.4317 9.01531 10.4317Z" fill="url(#paint3_linear_82_712)"/>
<defs>
<linearGradient id="paint0_linear_82_712" x1="1417.68" y1="3.00008" x2="2698.53" y2="785.197" gradientUnits="userSpaceOnUse">
<stop stop-color="#4285EB"/>
<stop offset="1" stop-color="#2EC7FF"/>
</linearGradient>
<linearGradient id="paint1_linear_82_712" x1="1589.48" y1="3" x2="956.852" y2="3272.57" gradientUnits="userSpaceOnUse">
<stop stop-color="#29CDFF"/>
<stop offset="0.378601" stop-color="#148EFF"/>
<stop offset="1" stop-color="#0A60FF"/>
</linearGradient>
<linearGradient id="paint2_linear_82_712" x1="540.793" y1="-148.255" x2="-282.348" y2="1139.07" gradientUnits="userSpaceOnUse">
<stop stop-color="#FA816E"/>
<stop offset="0.414726" stop-color="#F74A5C"/>
<stop offset="1" stop-color="#F51D2C"/>
</linearGradient>
<linearGradient id="paint3_linear_82_712" x1="503.457" y1="-251.966" x2="229.574" y2="843.609" gradientUnits="userSpaceOnUse">
<stop stop-color="#FA8E7D"/>
<stop offset="0.512635" stop-color="#F74A5C"/>
<stop offset="1" stop-color="#F51D2C"/>
</linearGradient>
</defs>
</svg>
