<svg width="18" height="18" viewBox="0 0 18 18" fill="none" xmlns="http://www.w3.org/2000/svg">
<rect width="18" height="18" rx="9" fill="white"/>
<g clip-path="url(#clip0_75_1646)">
<path d="M7.24582 13.4278C6.67713 12.908 6.51112 11.8157 6.74805 11.0244C7.15887 11.5233 7.72811 11.6813 8.31772 11.7705C9.22795 11.9082 10.1219 11.8567 10.9674 11.4407C11.0642 11.393 11.1536 11.3297 11.2593 11.2656C11.3386 11.4957 11.3592 11.7281 11.3315 11.9646C11.2642 12.5406 10.9775 12.9856 10.5216 13.3229C10.3392 13.4578 10.1463 13.5784 9.95804 13.7056C9.37956 14.0966 9.22306 14.555 9.44042 15.2219C9.44559 15.2382 9.45021 15.2544 9.46189 15.2941C9.16654 15.1619 8.9508 14.9694 8.78642 14.7163C8.6128 14.4493 8.5302 14.1539 8.52585 13.8342C8.52367 13.6786 8.52367 13.5217 8.50275 13.3683C8.45167 12.9944 8.27614 12.827 7.94547 12.8174C7.60611 12.8075 7.33766 13.0173 7.26647 13.3477C7.26104 13.373 7.25315 13.3981 7.24527 13.4275L7.24582 13.4278Z" fill="black"/>
<path d="M7.24582 13.4278C6.67713 12.908 6.51112 11.8157 6.74805 11.0244C7.15887 11.5233 7.72811 11.6813 8.31772 11.7705C9.22795 11.9082 10.1219 11.8567 10.9674 11.4407C11.0642 11.393 11.1536 11.3297 11.2593 11.2656C11.3386 11.4957 11.3592 11.7281 11.3315 11.9646C11.2642 12.5406 10.9775 12.9856 10.5216 13.3229C10.3392 13.4578 10.1463 13.5784 9.95804 13.7056C9.37956 14.0966 9.22306 14.555 9.44042 15.2219C9.44559 15.2382 9.45021 15.2544 9.46189 15.2941C9.16654 15.1619 8.9508 14.9694 8.78642 14.7163C8.6128 14.4493 8.5302 14.1539 8.52585 13.8342C8.52367 13.6786 8.52367 13.5217 8.50275 13.3683C8.45167 12.9944 8.27614 12.827 7.94547 12.8174C7.60611 12.8075 7.33766 13.0173 7.26647 13.3477C7.26104 13.373 7.25315 13.3981 7.24527 13.4275L7.24582 13.4278Z" fill="url(#paint0_linear_75_1646)"/>
<path d="M4 10.8925C4 10.8925 5.68399 10.0722 7.37268 10.0722L8.64589 6.13182C8.69356 5.94126 8.83274 5.81176 8.98987 5.81176C9.147 5.81176 9.28618 5.94126 9.33385 6.13182L10.6071 10.0722C12.6071 10.0722 13.9797 10.8925 13.9797 10.8925C13.9797 10.8925 11.1194 3.10028 11.1138 3.08464C11.0317 2.85426 10.8931 2.70589 10.7062 2.70589H7.27381C7.08696 2.70589 6.95396 2.85426 6.86628 3.08464C6.86009 3.09998 4 10.8925 4 10.8925Z" fill="black"/>
</g>
<defs>
<linearGradient id="paint0_linear_75_1646" x1="6.64356" y1="15.2941" x2="12.1347" y2="12.6996" gradientUnits="userSpaceOnUse">
<stop stop-color="#D83333"/>
<stop offset="1" stop-color="#F041FF"/>
</linearGradient>
<clipPath id="clip0_75_1646">
<rect width="10" height="12.5882" fill="white" transform="translate(4 2.70589)"/>
</clipPath>
</defs>
</svg>
