<svg width="60" height="60" viewBox="0 0 60 60" fill="none" xmlns="http://www.w3.org/2000/svg">
<rect width="60" height="60" rx="13" fill="white"/>
<path d="M42.6533 26.2139C42.653 23.9249 42.0546 21.6758 40.9169 19.6896L39.8329 15.3103L38.1391 16.3167L35.9827 11.7888L33.1077 13.6708L31.0087 8.48626L29.0467 11.0115L27.9836 6.42627L24.4386 14.59L23.4251 12.6196L19.511 18.9738C19.3559 19.2086 19.2069 19.4487 19.0638 19.694C17.9317 21.6817 17.339 23.9308 17.3448 26.2183C17.3448 26.3435 17.3394 26.47 17.3394 26.5953C17.3394 30.2041 20.4136 36.6813 23.4901 42.3255C23.4901 42.3255 29.2324 52.2249 29.9996 53.5736L36.5097 42.3255C39.5839 36.7741 42.6604 30.2041 42.6604 26.5953C42.6597 26.4663 42.657 26.3391 42.6533 26.2139ZM30.0018 41.1714C29.6182 40.5004 26.7446 35.544 26.7446 35.544C25.2069 32.7203 23.6692 29.4793 23.6692 27.6732C23.6498 26.8294 23.7993 25.9901 24.1088 25.2048C24.4183 24.4195 24.8812 23.7042 25.4712 23.1006C26.0611 22.4969 26.766 22.0171 27.544 21.6896C28.322 21.3621 29.1572 21.1935 30.0012 21.1935C30.8453 21.1935 31.6811 21.3621 32.459 21.6896C33.237 22.0171 33.9419 22.4969 34.5318 23.1006C35.1218 23.7042 35.5847 24.4195 35.8943 25.2048C36.2038 25.9901 36.3532 26.8294 36.3338 27.6732C36.3338 29.4793 34.7961 32.7661 33.2585 35.544L30.0018 41.1714Z" fill="#151515"/>
</svg>
