<svg width="18" height="18" viewBox="0 0 18 18" fill="none" xmlns="http://www.w3.org/2000/svg">
<g clip-path="url(#clip0_75_1422)">
<path d="M9 18C13.9706 18 18 13.9706 18 9C18 4.02944 13.9706 0 9 0C4.02944 0 0 4.02944 0 9C0 13.9706 4.02944 18 9 18Z" fill="white"/>
<g clip-path="url(#clip1_75_1422)">
<path d="M13.0094 7.3978C12.7381 6.54684 12.2046 5.80346 11.4854 5.2739C10.7661 4.74435 9.89784 4.45572 9.00468 4.44929C8.24954 4.44496 7.5075 4.64646 6.85828 5.03215C6.20905 5.41784 5.67719 5.97314 5.31983 6.63838C4.66305 6.75608 4.06097 7.08032 3.60122 7.56391C3.14148 8.04749 2.84806 8.66518 2.76369 9.32708C2.67931 9.98897 2.80838 10.6605 3.1321 11.244C3.45583 11.8274 3.95731 12.2923 4.56356 12.5711L4.64223 12.6067H4.64748V11.7151C4.23159 11.4598 3.906 11.0808 3.71635 10.6312C3.52671 10.1815 3.48251 9.68383 3.58995 9.20781C3.69739 8.73179 3.95108 8.30132 4.31548 7.97673C4.67987 7.65214 5.13669 7.4497 5.62192 7.3978L5.84219 7.37472L5.93869 7.17647C6.21269 6.5958 6.64676 6.10541 7.18989 5.76296C7.73301 5.42052 8.36262 5.24024 9.00468 5.24332C9.76974 5.24872 10.511 5.50974 11.1107 5.9849C11.7103 6.46005 12.1339 7.12205 12.314 7.86561L12.3895 8.1656H12.7042C13.2115 8.176 13.6946 8.38436 14.0503 8.74616C14.406 9.10796 14.6062 9.59452 14.608 10.1019C14.608 10.8414 14.1811 11.4466 13.4542 11.7529V12.5983L13.5066 12.5815C14.6751 12.1987 15.401 11.2484 15.401 10.1019C15.3962 9.43835 15.1513 8.79895 14.7117 8.30188C14.2721 7.80482 13.6674 7.48367 13.0094 7.3978Z" fill="#6772E5"/>
<path d="M7.46696 12.5039L7.64108 12.6781C7.64578 12.6829 7.64897 12.689 7.65025 12.6956C7.65153 12.7023 7.65085 12.7091 7.64828 12.7153C7.64572 12.7216 7.64139 12.7269 7.63583 12.7308C7.63026 12.7346 7.6237 12.7367 7.61696 12.7368H6.24287C6.07596 12.7368 5.91588 12.6705 5.79786 12.5525C5.67983 12.4344 5.61352 12.2744 5.61352 12.1075V9.43901C5.61352 9.42983 5.60988 9.42102 5.60339 9.41453C5.59689 9.40804 5.58809 9.40439 5.57891 9.40439H5.28521C5.27838 9.40446 5.27168 9.40251 5.26595 9.39878C5.26023 9.39504 5.25574 9.3897 5.25304 9.38342C5.25035 9.37714 5.24958 9.3702 5.25082 9.36348C5.25207 9.35676 5.25527 9.35056 5.26004 9.34565L6.42643 8.17926C6.42966 8.17599 6.43349 8.1734 6.43772 8.17163C6.44196 8.16986 6.4465 8.16895 6.45108 8.16895C6.45567 8.16895 6.46021 8.16986 6.46444 8.17163C6.46868 8.1734 6.47251 8.17599 6.47573 8.17926L7.64108 9.34565C7.64578 9.35049 7.64897 9.3566 7.65025 9.36322C7.65153 9.36984 7.65085 9.3767 7.64828 9.38294C7.64572 9.38918 7.64139 9.39453 7.63583 9.39835C7.63026 9.40216 7.6237 9.40426 7.61696 9.40439H7.31906C7.30978 9.40439 7.30087 9.408 7.29421 9.41447C7.28755 9.42093 7.28367 9.42973 7.2834 9.43901V12.0613C7.28382 12.2273 7.3498 12.3864 7.46696 12.5039ZM10.0442 12.5039L10.2193 12.6781C10.2241 12.683 10.2273 12.6892 10.2285 12.6959C10.2298 12.7026 10.229 12.7095 10.2263 12.7158C10.2236 12.7221 10.2191 12.7275 10.2134 12.7312C10.2077 12.7349 10.201 12.7369 10.1941 12.7368H8.82321C8.6563 12.7368 8.49622 12.6705 8.37819 12.5525C8.26017 12.4344 8.19386 12.2744 8.19386 12.1075V10.1135C8.19386 10.1042 8.19025 10.0953 8.18379 10.0886C8.17733 10.0819 8.16852 10.0781 8.15925 10.0778H7.8624C7.85566 10.0777 7.8491 10.0756 7.84353 10.0718C7.83797 10.0679 7.83364 10.0626 7.83107 10.0563C7.82851 10.0501 7.82783 10.0432 7.82911 10.0366C7.83039 10.03 7.83357 10.0239 7.83828 10.0191L9.00363 8.85476C9.00685 8.85149 9.01068 8.8489 9.01491 8.84713C9.01915 8.84536 9.02369 8.84445 9.02828 8.84445C9.03286 8.84445 9.0374 8.84536 9.04164 8.84713C9.04587 8.8489 9.0497 8.85149 9.05292 8.85476L10.2193 10.017C10.2241 10.0219 10.2273 10.0281 10.2285 10.0348C10.2298 10.0415 10.229 10.0484 10.2263 10.0547C10.2236 10.061 10.2191 10.0664 10.2134 10.0701C10.2077 10.0738 10.201 10.0758 10.1941 10.0757H9.89625C9.88698 10.076 9.87818 10.0799 9.87171 10.0865C9.86525 10.0932 9.86164 10.1021 9.86164 10.1114V12.0613C9.86178 12.2271 9.92737 12.3862 10.0442 12.5039ZM12.6224 12.5039L12.7965 12.6781C12.8012 12.6829 12.8044 12.689 12.8057 12.6956C12.807 12.7023 12.8063 12.7091 12.8037 12.7153C12.8012 12.7216 12.7968 12.7269 12.7913 12.7308C12.7857 12.7346 12.7791 12.7367 12.7724 12.7368H11.3973C11.2303 12.7368 11.0703 12.6705 10.9522 12.5525C10.8342 12.4344 10.7679 12.2744 10.7679 12.1075V10.7827C10.7679 10.7735 10.7643 10.7647 10.7578 10.7582C10.7513 10.7517 10.7425 10.7481 10.7333 10.7481H10.4396C10.4326 10.7481 10.4258 10.7461 10.42 10.7422C10.4142 10.7384 10.4097 10.7329 10.4071 10.7264C10.4045 10.7199 10.4039 10.7128 10.4054 10.706C10.4069 10.6992 10.4104 10.693 10.4155 10.6883L11.5819 9.52292C11.585 9.51969 11.5887 9.51711 11.5929 9.51536C11.597 9.5136 11.6015 9.51269 11.606 9.51269C11.6105 9.51269 11.6149 9.5136 11.6191 9.51536C11.6232 9.51711 11.627 9.51969 11.6301 9.52292L12.7965 10.6883C12.8016 10.693 12.8051 10.6992 12.8066 10.706C12.8081 10.7128 12.8075 10.7199 12.8049 10.7264C12.8023 10.7329 12.7978 10.7384 12.792 10.7422C12.7862 10.7461 12.7793 10.7481 12.7724 10.7481H12.4734C12.4643 10.7481 12.4555 10.7517 12.449 10.7582C12.4425 10.7647 12.4388 10.7735 12.4388 10.7827V12.0613C12.4393 12.2273 12.5052 12.3864 12.6224 12.5039Z" fill="#6772E5"/>
</g>
</g>
<defs>
<clipPath id="clip0_75_1422">
<rect width="18" height="18" fill="white"/>
</clipPath>
<clipPath id="clip1_75_1422">
<rect width="12.8571" height="8.45871" fill="white" transform="translate(2.57153 4.44928)"/>
</clipPath>
</defs>
</svg>
