<svg width="60" height="60" viewBox="0 0 60 60" fill="none" xmlns="http://www.w3.org/2000/svg">
<rect width="60" height="60" rx="16" fill="#4E9585"/>
<path d="M40.3635 28.7909C42.4854 28.2084 44.095 26.8448 45.3713 24.9612C45.411 24.8889 45.4516 24.8162 45.4927 24.7431C45.599 24.5532 45.7072 24.3597 45.8069 24.1621C46.3021 23.1752 46.5916 22.1458 46.5695 21.0614C46.536 19.3771 45.6092 18.1049 44.1157 17.7167C43.0137 17.43 41.9068 17.5993 40.826 18.0668C38.6701 19 37.0813 20.584 36.0808 22.7883C35.609 23.8299 35.3835 24.9175 35.5472 26.0259C35.7379 27.3224 36.3941 28.241 37.5645 28.7117C38.4618 29.0724 39.4071 29.0532 40.3635 28.7909Z" fill="#E5F4F2"/>
<path d="M46.7425 37.135C46.585 37.316 46.427 37.4975 46.2548 37.6625C44.7808 39.0752 43.0993 39.8716 41.1574 39.7975C40.0912 39.7567 39.1533 39.3955 38.4825 38.545C37.6859 37.5361 37.5998 36.3394 38.0169 35.0572C38.4825 33.6247 39.3903 32.5181 40.5846 31.6573C41.9655 30.661 43.4559 30.1408 45.0752 30.3164C46.0893 30.4261 46.9592 30.8329 47.5577 31.6836C48.2651 32.689 48.3048 33.8418 47.9081 35.0648C47.8392 35.2786 47.7492 35.4871 47.6592 35.6957C47.6181 35.7906 47.5766 35.886 47.5378 35.9818L46.9592 36.8892C46.8864 36.9699 46.8145 37.0524 46.7425 37.135Z" fill="#E5F4F2"/>
<path d="M13.3064 40.5085C13.1312 40.3581 12.956 40.2081 12.8072 40.0328C11.6228 38.6415 11.3483 36.9595 11.8165 35.0871C12.2145 33.5007 13.1603 32.2559 14.4018 31.2358C15.7324 30.1432 17.229 29.4648 18.839 29.1424C20.3179 28.8461 21.739 28.3454 23.1367 27.7209L23.533 27.5442C24.545 27.0929 25.557 26.6415 26.576 26.212C27.2799 25.9167 28.0081 25.7217 28.7509 25.6327C29.8864 25.4974 30.9148 25.7213 31.8389 26.3464C32.8805 27.0519 33.7005 27.948 34.1246 29.2013C34.3704 29.9256 34.4834 30.6886 34.4825 31.4719C34.4812 32.5636 34.4485 33.6564 34.4163 34.7491C34.3704 36.3459 34.5063 37.9023 34.8704 39.4259C35.2509 41.0205 35.2959 42.6621 34.9146 44.3334C34.6767 45.3783 34.2729 46.3602 33.6263 47.2311C32.4665 48.7955 30.9554 49.5959 29.1331 49.6749C28.3254 49.7104 26.8461 49.2259 26.8461 49.2259L26.7609 49.2108C26.7609 49.2108 25.8368 48.6305 25.8147 48.603C25.8072 48.5932 25.8001 48.5835 25.7931 48.5733C25.7798 48.5546 25.7666 48.536 25.7507 48.5205C25.6126 48.3838 25.4727 48.2494 25.3323 48.1149C25.0371 47.8323 24.7418 47.5497 24.4664 47.2462C24.2016 46.9543 23.9439 46.6548 23.6866 46.3553C23.074 45.6427 22.4614 44.9302 21.7469 44.3215C21.2367 43.8867 20.6979 43.4971 20.0941 43.2043C19.3624 42.8489 18.5861 42.6106 17.8076 42.3715L17.6513 42.3236C16.7395 42.0432 15.8299 41.7508 14.9292 41.4429C14.7147 41.3697 14.5117 41.2676 14.3082 41.1656C14.2138 41.1185 14.1189 41.0711 14.0231 41.0262L13.5518 40.7232C13.4719 40.65 13.3894 40.579 13.3064 40.5085Z" fill="#E5F4F2"/>
<path d="M27.896 13.8772C28.633 12.7401 29.6008 11.7527 30.8935 11.1747C31.789 10.773 32.692 10.6676 33.5812 10.9888C34.5672 11.3461 35.1912 12.0872 35.562 13.0781C36.0408 14.3595 36.0209 15.7072 35.6732 17.0788C35.1806 19.0189 34.2132 20.6692 32.6262 21.916C31.9969 22.4111 31.3044 22.7622 30.5435 22.9121C29.0452 23.2096 27.7265 22.5833 27.0204 21.2388C26.448 20.1494 26.3336 18.9433 26.4908 17.6788C26.6567 16.3438 27.1267 15.1042 27.896 13.8772Z" fill="#E5F4F2"/>
<path d="M18.5363 15.358C17.8796 15.8115 17.3504 16.3986 16.9183 17.0859C16.0719 18.4567 15.6769 19.9274 15.736 21.49C15.777 22.5885 16.0582 23.5943 16.684 24.4468C17.7617 25.9145 19.5403 26.1856 21.1618 25.1331C21.8313 24.6985 22.3776 24.1241 22.8199 23.4484C23.6451 22.1868 24.0556 20.8087 24.0852 19.3414C24.1081 18.1871 23.8768 17.115 23.2771 16.1773C22.198 14.4912 20.2773 14.1584 18.5363 15.358Z" fill="#E5F4F2"/>
</svg>
