<svg width="18" height="18" viewBox="0 0 18 18" fill="none" xmlns="http://www.w3.org/2000/svg">
<rect width="18" height="18" rx="9" fill="white"/>
<path d="M14.7237 12.1484C14.3073 12.2543 14.0497 12.1531 13.8186 11.8061L12.1752 9.53234L11.9377 9.21754L10.0185 11.8136C9.79919 12.1259 9.56917 12.2618 9.15993 12.1513L11.6175 8.8523L9.32949 5.87242C9.72299 5.79587 9.99486 5.83486 10.2363 6.18722L11.9409 8.4892L13.658 6.19974C13.878 5.88744 14.1145 5.76868 14.5094 5.88387L13.6222 7.06008L12.4203 8.62514C12.2772 8.804 12.2968 8.92635 12.4285 9.09913L14.7237 12.1484ZM3.27923 8.79721L3.48027 7.80845C4.0276 5.85167 6.27055 5.03855 7.81737 6.24768C8.72135 6.95884 8.946 7.96477 8.90129 9.09162H3.80581C3.72925 11.1199 5.18914 12.3441 7.0504 11.7195C7.70326 11.5002 8.08781 10.989 8.28027 10.3494C8.37793 10.0289 8.53962 9.97878 8.84083 10.0704C8.68701 10.8702 8.34001 11.5385 7.60667 11.9567C6.51095 12.5827 4.94696 12.3802 4.12418 11.5102C3.6341 11.0055 3.43162 10.3658 3.34076 9.68187C3.32645 9.56883 3.29783 9.46115 3.27637 9.35276C3.27828 9.16769 3.27923 8.98263 3.27923 8.79756V8.79721ZM3.81511 8.66127H8.41979C8.38974 7.19458 7.47646 6.15288 6.22834 6.14394C4.85824 6.1332 3.87449 7.15023 3.81511 8.66127Z" fill="black"/>
</svg>
