<svg width="20" height="20" viewBox="0 0 20 20" fill="none" xmlns="http://www.w3.org/2000/svg">
    <path
        fill-rule="evenodd"
        clip-rule="evenodd"
        d="M12.835 17.6168C14.8814 16.8547 16.5379 15.2916 17.423 13.3086C16.399 13.4926 15.2672 13.6389 14.0586 13.7406C13.792 15.2506 13.3687 16.5776 12.835 17.6168ZM10 20C15.5229 20 20 15.5229 20 10C20 4.47715 15.5229 0 10 0C4.47715 0 0 4.47715 0 10C0 15.5229 4.47715 20 10 20ZM10.6043 18.1029C10.4048 18.1175 10.2033 18.125 10 18.125C9.79673 18.125 9.5952 18.1175 9.39568 18.1029C9.3915 18.0989 9.3873 18.0949 9.38309 18.0907C9.05188 17.7706 8.68223 17.2317 8.3379 16.4447C8.01993 15.718 7.74974 14.8392 7.55126 13.8472C8.34506 13.886 9.1638 13.9062 10 13.9062C10.8362 13.9062 11.6549 13.886 12.4487 13.8472C12.2503 14.8392 11.9801 15.718 11.6621 16.4447C11.3178 17.2317 10.9481 17.7706 10.6169 18.0907C10.6127 18.0949 10.6085 18.0989 10.6043 18.1029ZM14.2734 12.1531C15.6421 12.0262 16.8895 11.8406 17.9655 11.6101C18.0701 11.0897 18.125 10.5512 18.125 10C18.125 9.44876 18.0701 8.91035 17.9655 8.38992C16.8895 8.15944 15.6421 7.9738 14.2734 7.84691C14.3399 8.5404 14.375 9.26084 14.375 10C14.375 10.7392 14.3399 11.4596 14.2734 12.1531ZM12.6906 7.73001C12.7696 8.44978 12.8125 9.21006 12.8125 10C12.8125 10.7899 12.7696 11.5502 12.6906 12.27C11.8265 12.3182 10.9261 12.3438 10 12.3438C9.07386 12.3438 8.17346 12.3182 7.30936 12.27C7.23037 11.5502 7.1875 10.7899 7.1875 10C7.1875 9.21006 7.23037 8.44978 7.30936 7.73001C8.17346 7.68181 9.07386 7.65625 10 7.65625C10.9261 7.65625 11.8265 7.68181 12.6906 7.73001ZM14.0586 6.25935C15.2672 6.36114 16.3989 6.50741 17.423 6.69132C16.5379 4.70837 14.8814 3.14528 12.835 2.38328C13.3687 3.42235 13.792 4.74941 14.0586 6.25935ZM10.6043 1.89714C10.6085 1.90111 10.6127 1.90514 10.6169 1.90921C10.9481 2.22941 11.3178 2.7682 11.6621 3.55521C11.9801 4.28203 12.2503 5.1607 12.4487 6.15274C11.6549 6.11398 10.8362 6.09375 10 6.09375C9.1638 6.09375 8.34506 6.11398 7.55126 6.15274C7.74972 5.1607 8.01993 4.28203 8.3379 3.55521C8.68223 2.7682 9.05188 2.22941 9.38309 1.90921C9.3873 1.90514 9.39149 1.90111 9.39566 1.89714C9.59519 1.88246 9.79673 1.875 10 1.875C10.2033 1.875 10.4048 1.88246 10.6043 1.89714ZM7.16502 2.38329C5.11862 3.14528 3.46219 4.70837 2.57699 6.69132C3.60106 6.50741 4.73271 6.36114 5.94136 6.25935C6.20799 4.74941 6.63121 3.42235 7.16502 2.38329ZM5.72666 7.84691C4.35791 7.9738 3.11046 8.15944 2.03451 8.38992C1.9299 8.91035 1.875 9.44876 1.875 10C1.875 10.5512 1.9299 11.0897 2.03451 11.6101C3.11046 11.8406 4.35791 12.0262 5.72666 12.1531C5.66009 11.4596 5.625 10.7392 5.625 10C5.625 9.26084 5.66009 8.5404 5.72666 7.84691ZM5.94136 13.7406C4.73271 13.6389 3.60106 13.4926 2.57699 13.3086C3.46219 15.2916 5.11862 16.8547 7.16502 17.6168C6.63121 16.5776 6.20799 15.2506 5.94136 13.7406Z"
        fill="#171717"
    />
</svg>
