<svg width="18" height="18" viewBox="0 0 18 18" fill="none" xmlns="http://www.w3.org/2000/svg">
<rect width="18" height="18" rx="9" fill="white"/>
<g clip-path="url(#clip0_75_1475)">
<path d="M13.8113 8.90132C13.8113 8.27682 13.3051 7.77056 12.6806 7.77056C12.6404 7.77056 12.6008 7.77271 12.5617 7.77679L14.1148 3.19611H7.51465L9.06556 7.77284C9.04267 7.77138 9.01975 7.77062 8.99681 7.77056C8.37235 7.77056 7.86609 8.27682 7.86609 8.90132C7.86609 9.40612 8.1969 9.83349 8.65353 9.9789C8.41235 10.3966 8.1089 10.7729 7.76438 11.0979C7.29589 11.5399 6.75973 11.875 6.17987 12.0815C5.48944 11.7268 5.1634 10.938 5.45756 10.2464C5.49082 10.1683 5.52472 10.0892 5.55716 10.0103C6.05732 9.8936 6.43003 9.44518 6.43003 8.90945C6.43003 8.28494 5.92377 7.77868 5.29926 7.77868C4.67471 7.77868 4.16846 8.28494 4.16846 8.90945C4.16846 9.29243 4.35902 9.63063 4.65026 9.83521C4.37037 10.4725 3.95898 11.1394 3.83081 11.9123C3.67719 12.8386 3.83033 13.8219 4.63149 14.3772C6.49736 15.6704 8.52274 13.5756 10.6582 13.0489C11.4321 12.8581 12.2817 12.8888 12.9635 12.4939C13.4756 12.1973 13.8132 11.7059 13.909 11.154C14.0036 10.6089 13.8656 10.0662 13.5484 9.62612C13.7186 9.42299 13.8117 9.16634 13.8113 8.90132ZM10.1275 8.90532L10.1277 8.90132C10.1277 8.49123 9.9093 8.1321 9.58256 7.93388L10.817 5.43779L12.0535 7.96035C11.7499 8.16308 11.5498 8.50881 11.5498 8.90132C11.5498 8.90957 11.5502 8.9177 11.5504 8.9259L10.1275 8.90532Z" fill="#C63D14"/>
<path d="M14.0875 8.90142C14.0875 8.21457 13.5926 7.64145 12.9407 7.51903L14.5 2.92004H7.1294L8.69106 7.52836C8.06186 7.66839 7.5899 8.23068 7.5899 8.90142C7.5899 9.40515 7.85609 9.84759 8.25505 10.0962C8.06315 10.3821 7.83559 10.6511 7.57481 10.8971C7.16128 11.2873 6.70053 11.5831 6.20381 11.7778C5.70352 11.4635 5.49203 10.8709 5.71169 10.3546L5.72888 10.3142L5.76115 10.2382C6.31063 10.0466 6.70616 9.52357 6.70616 8.90954C6.70616 8.13374 6.07499 7.50262 5.29919 7.50262C4.52339 7.50262 3.89226 8.13374 3.89226 8.90954C3.89226 9.30112 4.05318 9.6557 4.3122 9.91102C4.2639 10.0134 4.21487 10.1154 4.16511 10.2171C3.92827 10.7036 3.65985 11.255 3.55831 11.8672C3.35666 13.0832 3.68189 14.0552 4.4741 14.6043C4.95484 14.9375 5.44301 15.0685 5.93427 15.0685C6.85934 15.0684 7.79507 14.6037 8.71031 14.1491C9.36949 13.8217 10.0511 13.4832 10.7243 13.3171C10.9748 13.2554 11.2326 13.2182 11.5055 13.1788C12.0467 13.1008 12.6063 13.0201 13.102 12.733C13.6765 12.4002 14.0698 11.8419 14.181 11.2014C14.2765 10.6515 14.1616 10.1009 13.8813 9.63378C14.0164 9.4134 14.0878 9.1599 14.0875 8.90142ZM13.5351 8.90142C13.5351 9.37266 13.1518 9.75607 12.6805 9.75607C12.2093 9.75607 11.8259 9.37266 11.8259 8.90142C11.8259 8.43018 12.2093 8.04682 12.6805 8.04682C13.1518 8.04682 13.5351 8.43018 13.5351 8.90142ZM13.7295 3.47236L12.3526 7.53347C12.2934 7.54765 12.2351 7.5657 12.1782 7.58752L10.818 4.81269L9.45384 7.57111C9.39441 7.55054 9.33366 7.53403 9.27199 7.5217L7.89979 3.47236H13.7295ZM8.99682 8.04682C9.46806 8.04682 9.85143 8.43018 9.85143 8.90142C9.85143 9.37266 9.46806 9.75607 8.99682 9.75607C8.52563 9.75607 8.14222 9.37266 8.14222 8.90142C8.14222 8.43018 8.52563 8.04682 8.99682 8.04682ZM5.29919 8.05494C5.77047 8.05494 6.15384 8.43831 6.15384 8.90954C6.15384 9.38078 5.77047 9.76419 5.29919 9.76419C4.82799 9.76419 4.44458 9.38078 4.44458 8.90954C4.44458 8.43831 4.82799 8.05494 5.29919 8.05494ZM13.6368 11.1069C13.5537 11.5859 13.2578 12.0044 12.8251 12.255C12.4218 12.4886 11.9384 12.5584 11.4267 12.6321C11.1525 12.6717 10.869 12.7126 10.5921 12.7809C9.85981 12.9615 9.15052 13.3138 8.46461 13.6545C7.09197 14.3362 5.90651 14.925 4.78876 14.1503C3.96999 13.5829 4.00781 12.5329 4.1032 11.9576C4.19158 11.4245 4.43058 10.9336 4.6617 10.4589C4.70103 10.3782 4.74002 10.2973 4.77867 10.2163C4.89521 10.2629 5.01751 10.2936 5.14227 10.3075C4.90701 11.084 5.27702 11.9283 6.05359 12.3272L6.15985 12.3818L6.27243 12.3418C6.88637 12.1231 7.45205 11.7723 7.95384 11.2989C8.27821 10.9929 8.55695 10.6543 8.78615 10.2926C8.85588 10.3031 8.9263 10.3084 8.99682 10.3084C9.77262 10.3084 10.4038 9.67727 10.4038 8.90142C10.4038 8.4842 10.221 8.10899 9.93161 7.85109L10.8158 6.06308L11.709 7.88517C11.441 8.14152 11.2736 8.50216 11.2736 8.90142C11.2736 9.67727 11.9047 10.3084 12.6805 10.3084C12.9675 10.3086 13.2476 10.2206 13.4828 10.0563C13.6409 10.3799 13.6998 10.7441 13.6368 11.1069Z" fill="white"/>
</g>
<defs>
<clipPath id="clip0_75_1475">
<rect width="11" height="12.1628" fill="white" transform="translate(3.5 2.91864)"/>
</clipPath>
</defs>
</svg>
