<svg width="18" height="18" viewBox="0 0 18 18" fill="none" xmlns="http://www.w3.org/2000/svg">
<rect width="18" height="18" rx="9" fill="black"/>
<g clip-path="url(#clip0_82_726)">
<path fill-rule="evenodd" clip-rule="evenodd" d="M9.90599 6.228L9.89399 3H8.09399L8.10599 6.228L9.00599 7.464L9.90599 6.228ZM8.10599 11.76V15H9.90599V11.76L9.00599 10.524L8.10599 11.76Z" fill="white"/>
<path fill-rule="evenodd" clip-rule="evenodd" d="M9.90597 11.76L11.802 14.376L13.254 13.32L11.358 10.704L9.90597 10.236V11.76ZM8.10597 6.228L6.19797 3.612L4.74597 4.668L6.64197 7.284L8.10597 7.752V6.228Z" fill="#00F2E6"/>
<path fill-rule="evenodd" clip-rule="evenodd" d="M6.64194 7.28402L3.56994 6.28802L3.01794 7.99202L6.08994 9.00002L7.54194 8.52002L6.64194 7.28402ZM10.4579 9.46802L11.3579 10.704L14.4299 11.7L14.9819 9.99602L11.9099 9.00002L10.4579 9.46802Z" fill="#00B9F1"/>
<path fill-rule="evenodd" clip-rule="evenodd" d="M11.9099 9.00002L14.9819 7.99202L14.4299 6.28802L11.3579 7.28402L10.4579 8.52002L11.9099 9.00002ZM6.08994 9.00002L3.01794 9.99602L3.56994 11.7L6.64194 10.704L7.54194 9.46802L6.08994 9.00002Z" fill="#D63AFF"/>
<path fill-rule="evenodd" clip-rule="evenodd" d="M6.64197 10.704L4.74597 13.32L6.19797 14.376L8.10597 11.76V10.236L6.64197 10.704ZM11.358 7.284L13.254 4.668L11.802 3.612L9.90597 6.228V7.752L11.358 7.284Z" fill="#FB015B"/>
</g>
<defs>
<clipPath id="clip0_82_726">
<rect width="12" height="12" fill="white" transform="translate(3 3)"/>
</clipPath>
</defs>
</svg>
