<svg width="18" height="18" viewBox="0 0 18 18" fill="none" xmlns="http://www.w3.org/2000/svg">
<g clip-path="url(#clip0_75_1465)">
<path d="M9 18C13.9706 18 18 13.9706 18 9C18 4.02944 13.9706 0 9 0C4.02944 0 0 4.02944 0 9C0 13.9706 4.02944 18 9 18Z" fill="white"/>
<path d="M11.4058 7.90031C10.8373 5.39139 9.49381 4.56645 9.34914 4.25127C9.19094 4.02891 9.03062 3.6334 9.03062 3.6334C9.02799 3.62672 9.02377 3.61494 9.01885 3.60352C9.0025 3.82588 8.99406 3.91166 8.78383 4.13596C8.45828 4.39049 6.78801 5.79199 6.65213 8.64246C6.52539 11.301 8.57254 12.8851 8.84939 13.0871L8.88086 13.1094V13.1075C8.88262 13.1208 8.96875 13.7403 9.02922 14.3967H9.24613C9.29703 13.9327 9.37331 13.4719 9.47465 13.0162L9.49223 13.0048C9.61607 12.916 9.73414 12.8194 9.84572 12.7157L9.85838 12.7042C10.4469 12.1605 11.5049 10.903 11.4945 8.89805C11.4924 8.5636 11.4627 8.2299 11.4058 7.90031ZM9.00619 11.5861C9.00619 11.5861 9.00619 7.85742 9.12924 7.85813C9.22521 7.85813 9.34949 12.6677 9.34949 12.6677C9.17863 12.6471 9.00619 11.8761 9.00619 11.5861Z" fill="#13AA52"/>
</g>
<defs>
<clipPath id="clip0_75_1465">
<rect width="18" height="18" fill="white"/>
</clipPath>
</defs>
</svg>
