<svg width="60" height="61" viewBox="0 0 60 61" fill="none" xmlns="http://www.w3.org/2000/svg">
<rect y="0.5" width="60" height="60" rx="13" fill="url(#paint0_linear_161_1196)"/>
<path d="M27.562 13.5002C31.5046 13.4955 35.3022 14.9967 38.1879 17.7007C41.0735 20.4049 42.8323 24.1108 43.1093 28.0693C43.3863 32.0284 42.1606 35.9453 39.68 39.0303V39.3589C39.679 40.715 40.213 42.0157 41.1643 42.9757C42.1155 43.9354 43.4069 44.4758 44.7537 44.4777H46.4987C47.0351 44.4777 47.5306 44.7657 47.799 45.2332C48.067 45.701 48.067 46.277 47.799 46.7445C47.5306 47.2119 47.0351 47.4999 46.4987 47.4999H44.7723H44.7726C43.0212 47.5065 41.3158 46.9379 39.9145 45.8804C38.5132 44.8231 37.4928 43.3345 37.008 41.6406C34.3769 43.6589 31.1756 44.7812 27.8685 44.845C24.561 44.9087 21.3193 43.9105 18.6137 41.995C15.9077 40.0793 13.8784 37.3461 12.8193 34.1912C11.7604 31.0364 11.7271 27.6241 12.7242 24.4493C13.7214 21.2745 15.697 18.5014 18.365 16.5328C21.0328 14.5641 24.2542 13.5018 27.5622 13.5L27.562 13.5002ZM34.5087 32.5894C35.4045 32.5894 36.2637 32.2311 36.897 31.5936C37.5305 30.9559 37.8862 30.0911 37.8862 29.1892C37.8862 28.2875 37.5305 27.4229 36.897 26.7852C36.2637 26.1475 35.4045 25.7893 34.5087 25.7893C33.613 25.7893 32.7538 26.1474 32.1205 26.7852C31.487 27.4229 31.131 28.2875 31.131 29.1892C31.131 30.091 31.487 30.9559 32.1205 31.5936C32.7538 32.231 33.613 32.5894 34.5087 32.5894ZM27.562 39.5669C28.4578 39.5669 29.317 39.2088 29.9502 38.571C30.5837 37.9336 30.9395 37.0687 30.9395 36.1669C30.9395 35.2652 30.5837 34.4003 29.9502 33.7629C29.3169 33.1251 28.4578 32.767 27.562 32.767C26.6662 32.767 25.807 33.1251 25.1738 33.7629C24.5403 34.4003 24.1845 35.2652 24.1845 36.1669C24.1845 37.0687 24.5402 37.9336 25.1738 38.571C25.807 39.2087 26.6662 39.5669 27.562 39.5669ZM27.562 25.5891C28.4578 25.5891 29.317 25.231 29.9502 24.5932C30.5837 23.9558 30.9395 23.0909 30.9395 22.1892C30.9395 21.2874 30.5837 20.4225 29.9502 19.7848C29.3169 19.1474 28.4578 18.789 27.562 18.789C26.6662 18.789 25.807 19.1473 25.1738 19.7848C24.5403 20.4225 24.1845 21.2873 24.1845 22.1892C24.1845 23.0909 24.5402 23.9558 25.1738 24.5932C25.807 25.2309 26.6662 25.5891 27.562 25.5891ZM20.6045 32.5894C21.5003 32.5894 22.3595 32.2311 22.9927 31.5936C23.6262 30.9559 23.982 30.0911 23.982 29.1892C23.982 28.2875 23.6262 27.4229 22.9927 26.7852C22.3594 26.1475 21.5003 25.7893 20.6045 25.7893C19.7087 25.7893 18.8495 26.1474 18.2163 26.7852C17.5828 27.4229 17.227 28.2875 17.227 29.1892C17.227 30.091 17.5827 30.9559 18.2163 31.5936C18.8495 32.231 19.7087 32.5894 20.6045 32.5894Z" fill="#F6F6F6"/>
<defs>
<linearGradient id="paint0_linear_161_1196" x1="-4.8" y1="1.1" x2="60.3" y2="66.2" gradientUnits="userSpaceOnUse">
<stop stop-color="#FE9A3C"/>
<stop offset="1" stop-color="#FF6F3B"/>
</linearGradient>
</defs>
</svg>
