<svg width="18" height="18" viewBox="0 0 18 18" fill="none" xmlns="http://www.w3.org/2000/svg">
    <rect width="18" height="18" rx="9" fill="#149ECA"/>
    <mask id="mask0_75_1405" style="mask-type:luminance" maskUnits="userSpaceOnUse" x="3" y="3" width="12" height="12">
        <path d="M14.1429 3.85718H3.85718V14.1429H14.1429V3.85718Z" fill="white"/>
    </mask>
    <g mask="url(#mask0_75_1405)">
        <path fill-rule="evenodd" clip-rule="evenodd" d="M6.75003 5.10293C6.87944 5.02822 7.06807 5.0052 7.33706 5.08538C7.60695 5.16583 7.92736 5.34265 8.27764 5.61828C8.36448 5.68661 8.45234 5.76038 8.54086 5.83931C8.26857 6.12934 7.99871 6.45663 7.73844 6.81492C7.29803 6.86118 6.87966 6.93124 6.49235 7.02203C6.46825 6.9059 6.4483 6.79293 6.43254 6.68354C6.36898 6.24238 6.37605 5.87649 6.44133 5.60254C6.50639 5.32949 6.62063 5.17764 6.75003 5.10293ZM8.67517 5.11308C8.78291 5.19785 8.89134 5.2895 9.00003 5.38762C9.10872 5.2895 9.21715 5.19785 9.32488 5.11308C9.7131 4.8076 10.1056 4.58071 10.4794 4.46931C10.854 4.35765 11.2396 4.35463 11.5715 4.5462C11.9032 4.73777 12.0935 5.07327 12.1841 5.45354C12.2745 5.8329 12.2742 6.28627 12.2038 6.77522C12.1842 6.91091 12.1591 7.05064 12.1285 7.19383C12.2678 7.2389 12.4014 7.28698 12.5287 7.3379C12.9874 7.52136 13.3801 7.74786 13.6634 8.01582C13.9475 8.28441 14.1429 8.6169 14.1429 9.00004C14.1429 9.38318 13.9475 9.71566 13.6634 9.98426C13.3801 10.2522 12.9874 10.4787 12.5287 10.6622C12.4014 10.7131 12.2678 10.7612 12.1285 10.8063C12.1591 10.9494 12.1842 11.0892 12.2038 11.2248C12.2742 11.7138 12.2745 12.1672 12.1841 12.5466C12.0935 12.9268 11.9032 13.2623 11.5715 13.4539C11.2397 13.6455 10.854 13.6424 10.4794 13.5308C10.1056 13.4194 9.71311 13.1925 9.3249 12.887C9.21716 12.8022 9.10872 12.7105 9.00003 12.6124C8.89133 12.7105 8.7829 12.8022 8.67516 12.887C8.28695 13.1925 7.89441 13.4194 7.52069 13.5308C7.14607 13.6424 6.7604 13.6455 6.42859 13.4539C6.09678 13.2623 5.90657 12.9268 5.81596 12.5466C5.72558 12.1672 5.7258 11.7138 5.79624 11.2248C5.81579 11.0892 5.84094 10.9494 5.87158 10.8063C5.73226 10.7611 5.59868 10.7131 5.47139 10.6622C5.01273 10.4787 4.61998 10.2522 4.33664 9.98426C4.05262 9.71566 3.85718 9.38318 3.85718 9.00004C3.85718 8.6169 4.05262 8.28441 4.33664 8.01582C4.61998 7.74786 5.01273 7.52136 5.47139 7.3379C5.59868 7.28698 5.73226 7.2389 5.87158 7.19383C5.84095 7.05064 5.8158 6.91091 5.79625 6.77522C5.72581 6.28627 5.72559 5.83289 5.81598 5.45353C5.90658 5.07327 6.0968 4.73777 6.42861 4.5462C6.76042 4.35463 7.14608 4.35765 7.5207 4.46931C7.89442 4.58071 8.28696 4.80759 8.67517 5.11308ZM8.59341 6.75663C8.72833 6.59057 8.86427 6.43457 9.00003 6.28947C9.13579 6.43457 9.27173 6.59057 9.40665 6.75663C9.27241 6.75227 9.1368 6.75004 9.00003 6.75004C8.86327 6.75004 8.72766 6.75226 8.59341 6.75663ZM9.4592 5.83931C9.73148 6.12934 10.0013 6.45663 10.2616 6.81492C10.702 6.86118 11.1204 6.93124 11.5077 7.02203C11.5318 6.9059 11.5517 6.79293 11.5675 6.68355C11.6311 6.24238 11.624 5.87649 11.5587 5.60254C11.4937 5.32949 11.3794 5.17764 11.25 5.10293C11.1206 5.02822 10.932 5.0052 10.663 5.08538C10.3931 5.16584 10.0727 5.34265 9.72242 5.61828C9.63558 5.68661 9.54772 5.76038 9.4592 5.83931ZM9.00003 7.3929C9.31139 7.3929 9.61485 7.40502 9.90767 7.42797C10.074 7.67009 10.2362 7.92683 10.3919 8.19647C10.5475 8.46611 10.6888 8.73497 10.8153 9.00003C10.6888 9.2651 10.5475 9.53397 10.3918 9.80361C10.2362 10.0733 10.0739 10.33 9.90765 10.5721C9.61484 10.5951 9.31138 10.6072 9.00003 10.6072C8.68868 10.6072 8.38523 10.5951 8.0924 10.5721C7.92611 10.33 7.76388 10.0733 7.60821 9.80361C7.45253 9.53397 7.31129 9.2651 7.18476 9.00003C7.31129 8.73496 7.45252 8.46611 7.6082 8.19647C7.76387 7.92683 7.92609 7.67009 8.09238 7.42797C8.38521 7.40501 8.68867 7.3929 9.00003 7.3929ZM10.9486 7.87504C11.017 7.99347 11.0828 8.11202 11.1462 8.23046C11.2225 8.03059 11.2896 7.83488 11.3474 7.64476C11.1539 7.59974 10.9508 7.56002 10.7396 7.5262C10.8105 7.64027 10.8802 7.7566 10.9486 7.87504ZM10.9486 10.125C11.0169 10.0066 11.0828 9.88804 11.1462 9.7696C11.2225 9.96948 11.2897 10.1652 11.3474 10.3553C11.1539 10.4003 10.9508 10.44 10.7395 10.4739C10.8104 10.3598 10.8802 10.2435 10.9486 10.125ZM11.5232 9.00003C11.7033 9.40457 11.8519 9.80193 11.9669 10.1828C12.0795 10.1456 12.1873 10.1063 12.2899 10.0653C12.7038 9.89977 13.0171 9.7107 13.2217 9.51719C13.4257 9.32433 13.5 9.14946 13.5 9.00004C13.5 8.85062 13.4257 8.67575 13.2217 8.48289C13.0171 8.28938 12.7038 8.10031 12.2899 7.93478C12.1873 7.89373 12.0795 7.85452 11.9669 7.81733C11.8519 8.19814 11.7033 8.59548 11.5232 9.00003ZM10.2616 11.1852C10.702 11.1389 11.1204 11.0688 11.5077 10.978C11.5318 11.0942 11.5518 11.2072 11.5675 11.3165C11.6311 11.7577 11.624 12.1236 11.5587 12.3975C11.4937 12.6706 11.3794 12.8225 11.25 12.8972C11.1206 12.9719 10.932 12.9949 10.663 12.9147C10.3931 12.8342 10.0727 12.6574 9.72243 12.3818C9.63558 12.3135 9.54772 12.2397 9.45919 12.1608C9.73148 11.8707 10.0013 11.5434 10.2616 11.1852ZM9.40664 11.2435C9.27172 11.4095 9.13578 11.5655 9.00003 11.7106C8.86427 11.5655 8.72834 11.4095 8.59342 11.2434C8.72766 11.2478 8.86327 11.25 9.00003 11.25C9.13679 11.25 9.27239 11.2478 9.40664 11.2435ZM7.05148 10.125C7.11986 10.2435 7.18959 10.3598 7.26049 10.4739C7.04922 10.44 6.84615 10.4003 6.6526 10.3553C6.71039 10.1652 6.77752 9.96947 6.85387 9.76959C6.91721 9.88804 6.9831 10.0066 7.05148 10.125ZM7.73845 11.1852C7.29803 11.1389 6.87965 11.0688 6.49234 10.978C6.46824 11.0942 6.44829 11.2072 6.43253 11.3165C6.36897 11.7577 6.37604 12.1236 6.44132 12.3975C6.50637 12.6706 6.62062 12.8225 6.75002 12.8972C6.87942 12.9719 7.06806 12.9949 7.33705 12.9147C7.60694 12.8342 7.92734 12.6574 8.27762 12.3818C8.36447 12.3135 8.45233 12.2397 8.54086 12.1608C8.26857 11.8707 7.99872 11.5434 7.73845 11.1852ZM6.47687 9.00003C6.29672 9.40457 6.1482 9.80192 6.03318 10.1828C5.92055 10.1456 5.81275 10.1063 5.71014 10.0653C5.2963 9.89977 4.98297 9.7107 4.77835 9.51719C4.57442 9.32433 4.50003 9.14946 4.50003 9.00004C4.50003 8.85062 4.57442 8.67575 4.77835 8.48289C4.98297 8.28938 5.2963 8.10031 5.71014 7.93478C5.81275 7.89373 5.92056 7.85452 6.03319 7.81733C6.14821 8.19815 6.29672 8.59548 6.47687 9.00003ZM6.85387 8.23046C6.77753 8.03059 6.7104 7.83488 6.65262 7.64476C6.84615 7.59974 7.04921 7.56002 7.26048 7.5262C7.18958 7.64027 7.11984 7.7566 7.05146 7.87504C6.98309 7.99347 6.91721 8.11202 6.85387 8.23046ZM9.80361 9.00004C9.80361 9.44384 9.44384 9.80361 9.00003 9.80361C8.55623 9.80361 8.19646 9.44384 8.19646 9.00004C8.19646 8.55624 8.55623 8.19647 9.00003 8.19647C9.44384 8.19647 9.80361 8.55624 9.80361 9.00004Z" fill="white"/>
    </g>
</svg>
