<svg width="16" height="16" viewBox="0 0 16 16" fill="none" xmlns="http://www.w3.org/2000/svg">
<rect width="16" height="16" rx="3" fill="#6772E5"/>
<path fill-rule="evenodd" clip-rule="evenodd" d="M7.32604 6.04206C7.32604 5.62504 7.67053 5.43768 8.22656 5.43768C9.14797 5.45761 10.0521 5.69141 10.8677 6.12063V3.64871C10.0286 3.31965 9.13389 3.15548 8.23261 3.1652C6.08101 3.1652 4.64258 4.28935 4.64258 6.18711C4.64258 9.12441 8.67985 8.64695 8.67985 9.91615C8.67985 10.4057 8.25074 10.5628 7.66449 10.5628C6.63171 10.5059 5.62624 10.21 4.72719 9.69857V12.2309C5.64329 12.6268 6.63026 12.8324 7.62823 12.8353C9.83422 12.8353 11.3573 11.7474 11.3573 9.81341C11.3754 6.66458 7.32604 7.23269 7.32604 6.04206Z" fill="white"/>
</svg>
