<svg
    width="60"
    height="61"
    viewBox="0 0 60 61"
    fill="none"
    xmlns="http://www.w3.org/2000/svg">
        <rect y="0.5" width="60" height="60" rx="14" fill="white"/>
        <path d="M20.759 16.0017H15.635V26.5H13.31V16.0017H8.17706V13.6767H20.759V16.0017ZM36.206 17.9869C36.206 18.5175 36.1404 18.9914 36.0093 19.4087C35.8781 19.826 35.6993 20.1956 35.4727 20.5176C35.2521 20.8335 34.9958 21.1048 34.7037 21.3313C34.4116 21.5579 34.1045 21.7456 33.7826 21.8947C33.4667 22.0378 33.1447 22.1421 32.8168 22.2077C32.4949 22.2732 32.1909 22.306 31.9047 22.306L36.7604 26.5H33.1656L28.3188 22.306H26.6466V19.981H31.9047C32.1968 19.9572 32.4621 19.8976 32.7006 19.8022C32.945 19.7008 33.1537 19.5667 33.3266 19.3998C33.5054 19.2328 33.6425 19.0331 33.7379 18.8006C33.8333 18.5622 33.881 18.2909 33.881 17.9869V16.5203C33.881 16.3892 33.8631 16.2908 33.8273 16.2252C33.7975 16.1537 33.7558 16.103 33.7021 16.0732C33.6544 16.0374 33.6008 16.0166 33.5412 16.0106C33.4875 16.0047 33.4368 16.0017 33.3892 16.0017H25.7166V26.5H23.3916V14.8481C23.3916 14.6871 23.4214 14.5351 23.481 14.392C23.5406 14.249 23.6211 14.1238 23.7225 14.0165C23.8298 13.9092 23.955 13.8257 24.098 13.7661C24.2411 13.7065 24.3961 13.6767 24.563 13.6767H33.3892C33.9078 13.6767 34.346 13.772 34.7037 13.9628C35.0614 14.1476 35.3505 14.3831 35.5711 14.6693C35.7976 14.9495 35.9586 15.2535 36.054 15.5814C36.1553 15.9093 36.206 16.2163 36.206 16.5024V17.9869ZM52.2164 13.6767L46.1445 26.0439C46.0492 26.2347 45.9061 26.3867 45.7153 26.5C45.5305 26.6192 45.3248 26.6788 45.0983 26.6788C44.8777 26.6788 44.672 26.6192 44.4813 26.5C44.2965 26.3867 44.1534 26.2347 44.052 26.0439L37.9891 13.6767H40.5913L45.0983 22.9141L49.6231 13.6767H52.2164Z" fill="#EB0000"/>
        <path d="M20.9915 44.6832C20.9915 44.9693 20.9408 45.2763 20.8394 45.6042C20.7441 45.9321 20.5831 46.2361 20.3566 46.5163C20.136 46.7965 19.8468 47.032 19.4891 47.2228C19.1315 47.4076 18.6933 47.5 18.1746 47.5H9.34851C9.18159 47.5 9.02659 47.4702 8.88351 47.4106C8.74043 47.351 8.61524 47.2705 8.50793 47.1691C8.40658 47.0618 8.3261 46.9366 8.26649 46.7936C8.20687 46.6505 8.17706 46.4955 8.17706 46.3286V35.8481C8.17706 35.6871 8.20687 35.5351 8.26649 35.392C8.3261 35.249 8.40658 35.1238 8.50793 35.0165C8.61524 34.9092 8.74043 34.8257 8.88351 34.7661C9.02659 34.7065 9.18159 34.6767 9.34851 34.6767H17.1284C17.4145 34.6767 17.7215 34.7273 18.0494 34.8287C18.3773 34.93 18.6814 35.094 18.9616 35.3205C19.2477 35.5411 19.4832 35.8302 19.668 36.1879C19.8588 36.5456 19.9542 36.9838 19.9542 37.5024V37.9406C19.9542 38.352 19.8856 38.7961 19.7485 39.273C19.6114 39.744 19.3908 40.1911 19.0867 40.6144C19.3491 40.7753 19.5935 40.9691 19.82 41.1956C20.0525 41.4222 20.2552 41.6845 20.4281 41.9826C20.601 42.2806 20.7381 42.6175 20.8394 42.9931C20.9408 43.3686 20.9915 43.783 20.9915 44.236V44.6832ZM18.6665 44.236C18.6665 43.932 18.6188 43.6607 18.5234 43.4223C18.428 43.1779 18.2939 42.9692 18.121 42.7963C17.9481 42.6234 17.7394 42.4923 17.495 42.4029C17.2506 42.3075 16.9763 42.2598 16.6723 42.2598H11.4321V39.9169H15.626C15.9301 39.9169 16.2043 39.8722 16.4487 39.7827C16.6932 39.6874 16.9018 39.5532 17.0747 39.3803C17.2476 39.2075 17.3788 39.0018 17.4682 38.7633C17.5636 38.5189 17.6113 38.2447 17.6113 37.9406V37.5024C17.6113 37.1686 17.4503 37.0017 17.1284 37.0017H10.5021V45.175H18.1746C18.2164 45.175 18.267 45.172 18.3266 45.166C18.3863 45.1601 18.4399 45.1422 18.4876 45.1124C18.5353 45.0826 18.577 45.0319 18.6128 44.9604C18.6486 44.8888 18.6665 44.7905 18.6665 44.6653V44.236ZM35.9735 38.969C35.9735 39.4996 35.9049 39.9735 35.7678 40.3908C35.6367 40.8081 35.4608 41.1778 35.2402 41.4997C35.0196 41.8156 34.7603 42.0869 34.4622 42.3134C34.1701 42.54 33.8661 42.7278 33.5501 42.8768C33.2342 43.0199 32.9122 43.1242 32.5843 43.1898C32.2624 43.2554 31.9584 43.2881 31.6722 43.2881H30.7333V47.5H28.3904V43.2881H27.4604C27.1742 43.2881 26.8672 43.2554 26.5393 43.1898C26.2174 43.1242 25.8955 43.0199 25.5735 42.8768C25.2576 42.7278 24.9535 42.54 24.6614 42.3134C24.3693 42.0869 24.11 41.8156 23.8834 41.4997C23.6628 41.1778 23.484 40.8081 23.3469 40.3908C23.2157 39.9676 23.1502 39.4936 23.1502 38.969V34.6767H25.4752V38.969C25.4752 39.273 25.5229 39.5473 25.6182 39.7917C25.7136 40.0301 25.8478 40.2358 26.0206 40.4087C26.1935 40.5816 26.4022 40.7157 26.6466 40.8111C26.897 40.9005 27.1742 40.9453 27.4783 40.9453H31.6722C31.8928 40.9095 32.1193 40.8648 32.3518 40.8111C32.5843 40.7515 32.796 40.6531 32.9867 40.516C33.1775 40.3789 33.3355 40.1881 33.4607 39.9437C33.5859 39.6993 33.6485 39.3744 33.6485 38.969V34.6767H35.9735V38.969ZM51.7961 46.5074C51.7961 46.6743 51.7633 46.8293 51.6977 46.9724C51.6381 47.1155 51.5547 47.2407 51.4474 47.348C51.346 47.4493 51.2238 47.5298 51.0807 47.5894C50.9376 47.649 50.7856 47.6788 50.6247 47.6788C50.4816 47.6788 50.3355 47.652 50.1865 47.5984C50.0434 47.5447 49.9152 47.4583 49.802 47.339L41.3067 38.4682V47.5H38.9817V35.6693C38.9817 35.4308 39.0473 35.2162 39.1784 35.0254C39.3156 34.8287 39.4884 34.6826 39.6971 34.5872C39.9177 34.4978 40.1442 34.4769 40.3767 34.5246C40.6092 34.5664 40.8089 34.6737 40.9759 34.8466L49.4711 43.7084V34.6767H51.7961V46.5074Z" fill="#EB0000"/>
</svg>
