<svg width="253" height="90" viewBox="0 0 253 90" fill="none" xmlns="http://www.w3.org/2000/svg">
<path d="M24.729 14.9365H14.9365V35H10.4932V14.9365H0.683594V10.4932H24.729V14.9365ZM52.5 18.7305C52.5 19.7445 52.3747 20.6502 52.124 21.4478C51.8734 22.2453 51.5316 22.9517 51.0986 23.5669C50.6771 24.1707 50.1872 24.6891 49.6289 25.1221C49.0706 25.555 48.4839 25.9139 47.8687 26.1987C47.2648 26.4722 46.6496 26.6715 46.0229 26.7969C45.4077 26.9222 44.8267 26.9849 44.2798 26.9849L53.5596 35H46.6895L37.4268 26.9849H34.231V22.5415H44.2798C44.8381 22.4959 45.3451 22.382 45.8008 22.1997C46.2679 22.006 46.6667 21.7497 46.9971 21.4307C47.3389 21.1117 47.6009 20.73 47.7832 20.2856C47.9655 19.8299 48.0566 19.3115 48.0566 18.7305V15.9277C48.0566 15.6771 48.0225 15.4891 47.9541 15.3638C47.8971 15.2271 47.8174 15.1302 47.7148 15.0732C47.6237 15.0049 47.5212 14.965 47.4072 14.9536C47.3047 14.9422 47.2078 14.9365 47.1167 14.9365H32.4536V35H28.0103V12.7319C28.0103 12.4243 28.0672 12.1338 28.1812 11.8604C28.2951 11.5869 28.4489 11.3477 28.6426 11.1426C28.8477 10.9375 29.0869 10.778 29.3604 10.6641C29.6338 10.5501 29.93 10.4932 30.249 10.4932H47.1167C48.1079 10.4932 48.9453 10.6755 49.6289 11.04C50.3125 11.3932 50.8651 11.8433 51.2866 12.3901C51.7196 12.9256 52.0272 13.5067 52.2095 14.1333C52.4032 14.7599 52.5 15.3467 52.5 15.8936V18.7305ZM81.0059 35H76.5625V28.9844H60.9424V35H56.499V22.7466C56.499 20.9578 56.8066 19.3115 57.4219 17.8076C58.0371 16.3037 58.8916 15.0106 59.9854 13.9282C61.0791 12.8459 62.3722 12.0028 63.8647 11.3989C65.3573 10.7951 66.9865 10.4932 68.7524 10.4932H78.7671C79.0747 10.4932 79.3652 10.5501 79.6387 10.6641C79.9121 10.778 80.1514 10.9375 80.3564 11.1426C80.5615 11.3477 80.721 11.5869 80.835 11.8604C80.9489 12.1338 81.0059 12.4243 81.0059 12.7319V35ZM60.9424 24.541H76.5625V14.9365H68.7524C68.6157 14.9365 68.3252 14.9593 67.8809 15.0049C67.4479 15.0391 66.9409 15.1359 66.3599 15.2954C65.7902 15.4549 65.1864 15.6999 64.5483 16.0303C63.9103 16.3607 63.3236 16.8164 62.7881 17.3975C62.2526 17.9785 61.8083 18.7077 61.4551 19.585C61.1133 20.4508 60.9424 21.5047 60.9424 22.7466V24.541ZM110.708 10.4932L99.104 34.1284C98.9217 34.493 98.6483 34.7835 98.2837 35C97.9305 35.2279 97.5374 35.3418 97.1045 35.3418C96.6829 35.3418 96.2899 35.2279 95.9253 35C95.5721 34.7835 95.2987 34.493 95.105 34.1284L83.5181 10.4932H88.4912L97.1045 28.147L105.752 10.4932H110.708ZM133.369 24.9854H119.338V20.5078H133.369V24.9854ZM135.369 35H119.338C118.723 35 118.051 34.8918 117.322 34.6753C116.593 34.4588 115.915 34.1056 115.288 33.6157C114.673 33.1144 114.154 32.4707 113.733 31.6846C113.323 30.887 113.118 29.9129 113.118 28.7622V12.7319C113.118 12.4243 113.175 12.1338 113.289 11.8604C113.403 11.5869 113.556 11.3477 113.75 11.1426C113.955 10.9375 114.194 10.778 114.468 10.6641C114.741 10.5501 115.037 10.4932 115.356 10.4932H135.369V14.9365H117.561V28.7622C117.561 29.3433 117.715 29.7876 118.022 30.0952C118.33 30.4028 118.78 30.5566 119.373 30.5566H135.369V35ZM162.183 35H141.914C141.595 35 141.299 34.943 141.025 34.8291C140.752 34.7152 140.513 34.5614 140.308 34.3677C140.114 34.1626 139.96 33.9233 139.846 33.6499C139.732 33.3765 139.675 33.0802 139.675 32.7612V10.4932H144.119V30.5566H162.183V35Z" fill="#EB0000"/>
<path d="M109.036 74.6167C109.036 75.1636 108.939 75.7503 108.746 76.377C108.563 77.0036 108.256 77.5846 107.823 78.1201C107.401 78.6556 106.849 79.1056 106.165 79.4702C105.481 79.8234 104.644 80 103.653 80H86.7852C86.4661 80 86.1699 79.943 85.8965 79.8291C85.623 79.7152 85.3838 79.5614 85.1787 79.3677C84.985 79.1626 84.8312 78.9233 84.7173 78.6499C84.6034 78.3765 84.5464 78.0802 84.5464 77.7612V57.7319C84.5464 57.4243 84.6034 57.1338 84.7173 56.8604C84.8312 56.5869 84.985 56.3477 85.1787 56.1426C85.3838 55.9375 85.623 55.778 85.8965 55.6641C86.1699 55.5501 86.4661 55.4932 86.7852 55.4932H101.653C102.2 55.4932 102.787 55.59 103.414 55.7837C104.04 55.9774 104.621 56.2907 105.157 56.7236C105.704 57.1452 106.154 57.6978 106.507 58.3813C106.871 59.0649 107.054 59.9023 107.054 60.8936V61.731C107.054 62.5171 106.923 63.3659 106.661 64.2773C106.399 65.1774 105.977 66.0319 105.396 66.8408C105.897 67.1484 106.364 67.5187 106.797 67.9517C107.242 68.3846 107.629 68.8859 107.959 69.4556C108.29 70.0252 108.552 70.6689 108.746 71.3867C108.939 72.1045 109.036 72.8963 109.036 73.7622V74.6167ZM104.593 73.7622C104.593 73.1812 104.502 72.6628 104.319 72.207C104.137 71.7399 103.881 71.3411 103.55 71.0107C103.22 70.6803 102.821 70.4297 102.354 70.2588C101.887 70.0765 101.363 69.9854 100.782 69.9854H90.7671V65.5078H98.7822C99.3633 65.5078 99.8874 65.4224 100.354 65.2515C100.822 65.0692 101.22 64.8128 101.551 64.4824C101.881 64.152 102.132 63.759 102.303 63.3032C102.485 62.8361 102.576 62.312 102.576 61.731V60.8936C102.576 60.2555 102.269 59.9365 101.653 59.9365H88.9897V75.5566H103.653C103.733 75.5566 103.829 75.5509 103.943 75.5396C104.057 75.5282 104.16 75.494 104.251 75.437C104.342 75.38 104.422 75.2832 104.49 75.1465C104.559 75.0098 104.593 74.8218 104.593 74.5825V73.7622ZM133.064 69.9854H119.034V65.5078H133.064V69.9854ZM135.064 80H119.034C118.418 80 117.746 79.8918 117.017 79.6753C116.288 79.4588 115.61 79.1056 114.983 78.6157C114.368 78.1144 113.85 77.4707 113.428 76.6846C113.018 75.887 112.813 74.9129 112.813 73.7622V57.7319C112.813 57.4243 112.87 57.1338 112.984 56.8604C113.098 56.5869 113.252 56.3477 113.445 56.1426C113.65 55.9375 113.89 55.778 114.163 55.6641C114.437 55.5501 114.733 55.4932 115.052 55.4932H135.064V59.9365H117.256V73.7622C117.256 74.3433 117.41 74.7876 117.718 75.0952C118.025 75.4028 118.475 75.5566 119.068 75.5566H135.064V80ZM162.715 63.6963C162.715 64.7103 162.584 65.616 162.322 66.4136C162.072 67.2111 161.736 67.9175 161.314 68.5327C160.892 69.1366 160.397 69.6549 159.827 70.0879C159.269 70.5208 158.688 70.8797 158.084 71.1646C157.48 71.438 156.865 71.6374 156.238 71.7627C155.623 71.888 155.042 71.9507 154.495 71.9507H152.701V80H148.223V71.9507H146.446C145.899 71.9507 145.312 71.888 144.686 71.7627C144.07 71.6374 143.455 71.438 142.84 71.1646C142.236 70.8797 141.655 70.5208 141.097 70.0879C140.538 69.6549 140.043 69.1366 139.61 68.5327C139.188 67.9175 138.847 67.2111 138.584 66.4136C138.334 65.6047 138.208 64.6989 138.208 63.6963V55.4932H142.652V63.6963C142.652 64.2773 142.743 64.8014 142.925 65.2686C143.108 65.7243 143.364 66.1174 143.694 66.4478C144.025 66.7782 144.424 67.0345 144.891 67.2168C145.369 67.3877 145.899 67.4731 146.48 67.4731H154.495C154.917 67.4048 155.35 67.3193 155.794 67.2168C156.238 67.1029 156.643 66.9149 157.007 66.6528C157.372 66.3908 157.674 66.0262 157.913 65.5591C158.152 65.092 158.272 64.471 158.272 63.6963V55.4932H162.715V63.6963ZM192.435 70.0879C192.435 71.5804 192.178 72.9533 191.666 74.2065C191.153 75.4598 190.441 76.5422 189.529 77.4536C188.618 78.3651 187.535 79.0771 186.282 79.5898C185.04 80.0911 183.685 80.3418 182.215 80.3418H176.199C174.729 80.3418 173.368 80.0911 172.115 79.5898C170.861 79.0771 169.779 78.3651 168.868 77.4536C167.956 76.5422 167.238 75.4598 166.714 74.2065C166.202 72.9533 165.945 71.5804 165.945 70.0879V65.4053C165.945 63.9242 166.202 62.557 166.714 61.3037C167.238 60.0391 167.956 58.9567 168.868 58.0566C169.779 57.1452 170.861 56.4331 172.115 55.9204C173.368 55.4077 174.729 55.1514 176.199 55.1514H182.215C183.685 55.1514 185.04 55.4077 186.282 55.9204C187.535 56.4331 188.618 57.1452 189.529 58.0566C190.441 58.9567 191.153 60.0391 191.666 61.3037C192.178 62.557 192.435 63.9242 192.435 65.4053V70.0879ZM187.991 65.4053C187.991 64.528 187.849 63.7362 187.564 63.0298C187.291 62.312 186.897 61.7025 186.385 61.2012C185.883 60.6885 185.274 60.2954 184.556 60.022C183.85 59.7371 183.069 59.5947 182.215 59.5947H176.199C175.333 59.5947 174.542 59.7371 173.824 60.022C173.117 60.2954 172.508 60.6885 171.995 61.2012C171.482 61.7025 171.084 62.312 170.799 63.0298C170.525 63.7362 170.389 64.528 170.389 65.4053V70.0879C170.389 70.9652 170.525 71.7627 170.799 72.4805C171.084 73.1868 171.482 73.7964 171.995 74.3091C172.508 74.8104 173.117 75.2035 173.824 75.4883C174.542 75.7617 175.333 75.8984 176.199 75.8984H182.181C183.047 75.8984 183.833 75.7617 184.539 75.4883C185.257 75.2035 185.872 74.8104 186.385 74.3091C186.897 73.7964 187.291 73.1868 187.564 72.4805C187.849 71.7627 187.991 70.9652 187.991 70.0879V65.4053ZM221.316 78.103C221.316 78.422 221.254 78.7183 221.128 78.9917C221.014 79.2651 220.855 79.5044 220.65 79.7095C220.456 79.9032 220.223 80.057 219.949 80.1709C219.676 80.2848 219.385 80.3418 219.078 80.3418C218.804 80.3418 218.525 80.2905 218.24 80.188C217.967 80.0854 217.722 79.9202 217.505 79.6924L201.27 62.7393V80H196.827V57.3901C196.827 56.9344 196.952 56.5243 197.203 56.1597C197.465 55.7837 197.795 55.5046 198.194 55.3223C198.615 55.1514 199.048 55.1115 199.493 55.2026C199.937 55.2824 200.319 55.4875 200.638 55.8179L216.873 72.7539V55.4932H221.316V78.103ZM250.95 69.7461C250.95 71.2386 250.688 72.6115 250.164 73.8647C249.651 75.118 248.939 76.2004 248.028 77.1118C247.116 78.0119 246.034 78.7183 244.781 79.231C243.528 79.7437 242.166 80 240.696 80H228.699C228.38 80 228.084 79.943 227.811 79.8291C227.537 79.7152 227.298 79.5614 227.093 79.3677C226.899 79.1626 226.745 78.9233 226.631 78.6499C226.517 78.3765 226.46 78.0802 226.46 77.7612V57.7319C226.46 57.4243 226.517 57.1338 226.631 56.8604C226.745 56.5869 226.899 56.3477 227.093 56.1426C227.298 55.9375 227.537 55.778 227.811 55.6641C228.084 55.5501 228.38 55.4932 228.699 55.4932H240.696C242.166 55.4932 243.528 55.7495 244.781 56.2622C246.034 56.7749 247.116 57.487 248.028 58.3984C248.939 59.2985 249.651 60.3809 250.164 61.6455C250.688 62.8988 250.95 64.266 250.95 65.7471V69.7461ZM246.507 65.7471C246.507 64.8812 246.364 64.0894 246.08 63.3716C245.806 62.6538 245.413 62.0443 244.9 61.543C244.388 61.0303 243.772 60.6372 243.055 60.3638C242.348 60.0789 241.562 59.9365 240.696 59.9365H230.904V75.5566H240.696C241.562 75.5566 242.348 75.4199 243.055 75.1465C243.772 74.8617 244.388 74.4686 244.9 73.9673C245.413 73.4546 245.806 72.8451 246.08 72.1387C246.364 71.4209 246.507 70.6234 246.507 69.7461V65.7471Z" fill="#EB0000"/>
</svg>
