<svg width="18" height="18" viewBox="0 0 18 18" fill="none" xmlns="http://www.w3.org/2000/svg">
<rect width="18" height="18" rx="9" fill="white"/>
<g clip-path="url(#clip0_84_753)">
<path d="M6.65565 7.37072C7.29366 7.37072 7.81204 7.71189 8.07787 8.30436L8.09781 8.35096L9.1678 7.98649L9.1462 7.93157C8.73249 6.91972 7.77715 6.2923 6.65565 6.2923C5.86645 6.2923 5.22512 6.54526 4.69511 7.06617C4.16842 7.58375 3.90259 8.23447 3.90259 9.00002C3.90259 9.76057 4.17009 10.408 4.69511 10.9239C5.22512 11.4448 5.86645 11.6977 6.65565 11.6977C7.77715 11.6977 8.73083 11.0687 9.1462 10.0585L9.1678 10.0036L8.09615 9.63908L8.07787 9.68735C7.83862 10.2715 7.30695 10.6193 6.65565 10.6193C6.21204 10.6193 5.83654 10.4645 5.5408 10.1583C5.24007 9.84878 5.08888 9.45768 5.08888 9.00002C5.08888 8.53902 5.23675 8.15625 5.5408 7.83172C5.83821 7.5255 6.21204 7.37072 6.65565 7.37072Z" fill="#1B1E2E"/>
<path d="M11.3012 16.5507L10.9822 15.4972C13.8599 14.6218 15.7938 12.0106 15.7938 9.00003C15.7938 8.16957 15.6459 7.35742 15.3535 6.58855L16.3803 6.19745C16.7209 7.09281 16.8937 8.03477 16.8937 9.00169C16.892 12.4983 14.6457 15.5322 11.3012 16.5507Z" fill="url(#paint0_linear_84_753)"/>
<path d="M15.4963 7.00956C14.6174 4.13709 12.0072 2.20823 8.99995 2.20823C8.59122 2.20823 8.1825 2.24485 7.78375 2.31641L7.58936 1.23299C8.05125 1.14978 8.52643 1.10651 8.99995 1.10651C12.4924 1.10651 15.5246 3.34824 16.5464 6.68504L15.4963 7.00956Z" fill="#69D3A7"/>
<path d="M1.61324 11.7826C1.27762 10.8939 1.10815 9.95691 1.10815 8.99997C1.10815 4.92258 4.16361 1.54584 8.21594 1.14642L8.32394 2.24149C4.8365 2.58599 2.20639 5.49175 2.20639 8.99997C2.20639 9.82377 2.3526 10.6309 2.64003 11.3948L1.61324 11.7826Z" fill="url(#paint1_linear_84_753)"/>
<path d="M13.3564 6.39215L11.8328 10.2598L10.2976 6.39215H9.0415L11.1948 11.6711L9.62634 15.4822L10.7246 15.7019L14.5426 6.39215H13.3564Z" fill="#1B1E2E"/>
<path d="M9.82416 15.0029L9.59321 15.5637C9.54004 15.6919 9.41876 15.7801 9.28251 15.7851C9.18781 15.7884 9.09477 15.7917 8.9984 15.7917C5.98283 15.7917 3.29788 13.7697 2.46881 10.8739L1.41211 11.1768C2.37576 14.5402 5.49435 16.8901 8.99674 16.8918H8.9984C9.10806 16.8918 9.21772 16.8901 9.32737 16.8851C9.89061 16.8618 10.394 16.5074 10.61 15.9831L10.9224 15.2226L9.82416 15.0029Z" fill="url(#paint2_linear_84_753)"/>
</g>
<defs>
<linearGradient id="paint0_linear_84_753" x1="17.4983" y1="9.04999" x2="10.4448" y2="13.6093" gradientUnits="userSpaceOnUse">
<stop offset="0.0814251" stop-color="#69D3A7"/>
<stop offset="1" stop-color="#69D3A7" stop-opacity="0"/>
</linearGradient>
<linearGradient id="paint1_linear_84_753" x1="6.3731" y1="1.20628" x2="1.93407" y2="10.6053" gradientUnits="userSpaceOnUse">
<stop stop-color="#69D3A7"/>
<stop offset="0.8232" stop-color="#2AB586"/>
<stop offset="1" stop-color="#1CAE7F"/>
</linearGradient>
<linearGradient id="paint2_linear_84_753" x1="1.0969" y1="12.6138" x2="12.7085" y2="16.2519" gradientUnits="userSpaceOnUse">
<stop offset="0.0773521" stop-color="#1CAE7F"/>
<stop offset="0.1638" stop-color="#1CA379"/>
<stop offset="0.3161" stop-color="#1C8568"/>
<stop offset="0.5165" stop-color="#1B554D"/>
<stop offset="0.7187" stop-color="#1B1E2E"/>
</linearGradient>
<clipPath id="clip0_84_753">
<rect width="16" height="16" fill="white" transform="translate(1 1)"/>
</clipPath>
</defs>
</svg>
