<svg width="20" height="20" viewBox="0 0 20 20" fill="none" xmlns="http://www.w3.org/2000/svg">
    <g clip-path="url(#clip0_55_300)">
        <path d="M9.0171 12.1048L10.8149 10.307L9.28979 8.7819L7.49197 10.5797L9.0171 12.1048ZM6.79757 14.3244L8.59539 12.5266L7.07026 11.0014L5.27244 12.7992L6.79757 14.3244ZM4.57805 16.5439L6.37586 14.7461L4.85073 13.221L3.05292 15.0188L4.57805 16.5439ZM2.35852 18.7634L4.15634 16.9656L2.63121 15.4405L0.833388 17.2383L2.35852 18.7634ZM11.2366 9.88532L13.0344 8.0875L11.5093 6.56237L9.7115 8.36019L11.2366 9.88532Z" fill="#F6FA2A"/>
        <path d="M16.785 1.51779L18.4544 3.18719L16.6973 4.9443L15.0279 3.2749L16.785 1.51779ZM16.5636 9.98319L18.233 11.6526L16.4759 13.4097L14.8065 11.7403L16.5636 9.98319ZM8.31961 1.73923L9.98901 3.40863L8.2319 5.16574L6.5625 3.49634L8.31961 1.73923ZM12.5523 1.62851L14.2217 3.29791L12.4646 5.05502L10.7952 3.38562L12.5523 1.62851ZM16.6743 5.75049L18.3437 7.41989L16.5866 9.177L14.9172 7.5076L16.6743 5.75049Z" fill="#F6FA2A"/>
    </g>
    <defs>
        <clipPath id="clip0_55_300">
            <rect width="20" height="20" fill="white"/>
        </clipPath>
    </defs>
</svg>
