<svg width="20" height="20" viewBox="0 0 20 20" fill="none" xmlns="http://www.w3.org/2000/svg">
    <path
        fill-rule="evenodd"
        clip-rule="evenodd"
        d="M10 0C4.475 0 0 4.5882 0 10.2529C0 14.7899 2.8625 18.6219 6.8375 19.9804C7.3375 20.0701 7.525 19.7626 7.525 19.4935C7.525 19.2499 7.5125 18.4425 7.5125 17.5839C5 18.058 4.35 16.9558 4.15 16.3791C4.0375 16.0844 3.55 15.1744 3.125 14.9309C2.775 14.7386 2.275 14.2644 3.1125 14.2516C3.9 14.2387 4.4625 14.9949 4.65 15.3026C5.55 16.8532 6.9875 16.4176 7.5625 16.1483C7.65 15.4819 7.9125 15.0333 8.2 14.7771C5.975 14.5208 3.65 13.6364 3.65 9.71466C3.65 8.59966 4.0375 7.67689 4.675 6.95919C4.575 6.70287 4.225 5.65194 4.775 4.24216C4.775 4.24216 5.6125 3.97302 7.525 5.29308C8.325 5.06239 9.175 4.94704 10.025 4.94704C10.875 4.94704 11.725 5.06239 12.525 5.29308C14.4375 3.9602 15.275 4.24216 15.275 4.24216C15.825 5.65194 15.475 6.70287 15.375 6.95919C16.0125 7.67689 16.4 8.58684 16.4 9.71466C16.4 13.6492 14.0625 14.5208 11.8375 14.7771C12.2 15.0974 12.5125 15.7126 12.5125 16.6739C12.5125 18.0451 12.5 19.1473 12.5 19.4935C12.5 19.7626 12.6875 20.083 13.1875 19.9804C15.1726 19.2933 16.8978 17.9851 18.1198 16.2401C19.3419 14.4951 19.9995 12.4012 20 10.2529C20 4.5882 15.525 0 10 0Z"
        fill="#0B0B0B"
    />
</svg>
